<svg width="108" height="24" viewBox="0 0 108 24" fill="none" xmlns="http://www.w3.org/2000/svg">
<g clip-path="url(#clip0_16204_594)">
<path d="M10.8423 0.0524925C17.4194 -0.561194 23.2471 4.27684 23.854 10.8545C24.4609 17.4324 19.617 23.2548 13.0387 23.855C6.46996 24.4546 0.657415 19.6191 0.0513343 13.0508C-0.554682 6.48269 4.27479 0.665221 10.8423 0.0524925ZM13.2272 22.59C19.0988 21.885 23.286 16.5516 22.5775 10.6807C21.869 4.80954 16.5332 0.625658 10.6625 1.33791C4.79707 2.04945 0.617785 7.37941 1.32562 13.2451C2.03353 19.1116 7.3608 23.2938 13.2272 22.59Z" fill="#080C09"/>
<path d="M16.6304 5.73352L18.0062 5.72412C18.0329 9.69477 18.0348 13.6657 18.0121 17.6363L16.5895 17.6542L16.5874 10.1936L16.5809 8.15062C15.7863 9.6586 14.8842 11.1083 14.0247 12.5797C13.4799 13.5123 12.974 14.5823 12.2998 15.4209C12.139 15.4797 11.9646 15.4842 11.797 15.4458C11.7422 15.433 11.6276 15.3902 11.586 15.357C11.2223 15.0668 7.80298 9.06006 7.25692 8.14915C7.39709 9.22932 7.30901 10.4079 7.30843 11.4983L7.30428 17.6248L5.84961 17.6299C5.89467 13.6657 5.82353 9.69861 5.86156 5.73345L7.44561 5.7417C8.14999 7.0011 8.90558 8.23416 9.63605 9.47873C10.4123 10.8013 11.1681 12.1399 11.9928 13.433C12.8318 11.9009 13.77 10.4159 14.6719 8.91924C15.3107 7.85921 15.9146 6.74287 16.6304 5.73352Z" fill="#080C09"/>
<path d="M89.4704 8.56284C89.751 8.54398 90.0393 8.53656 90.3205 8.54155C91.3694 8.56028 92.4407 9.12111 93.1585 9.86461C94.0534 10.7911 94.4688 12.0832 94.4388 13.3577C94.4088 14.6546 93.9223 15.8876 92.968 16.7774C92.1217 17.5655 91.0377 17.9874 89.8782 17.9439C88.5506 17.8941 87.6704 17.3348 86.78 16.3843C86.7455 16.9282 86.7557 17.4786 86.7506 18.0238C86.7564 19.1066 86.7551 20.1894 86.7461 21.2728C86.2412 21.3227 85.7324 21.3182 85.2281 21.2588C85.3105 19.5822 85.2377 17.8653 85.2383 16.1842C85.2383 13.6837 85.2779 11.1765 85.2217 8.6768L86.7238 8.67093C86.6944 9.22875 86.7014 9.79226 86.6931 10.351C87.5068 9.33549 88.1856 8.84587 89.4704 8.56284ZM90.1211 16.6023C91.0549 16.4271 91.7785 16.0462 92.3263 15.2401C92.8626 14.438 93.055 13.4542 92.86 12.5095C92.6925 11.6676 92.194 10.8718 91.4608 10.4118C90.8836 10.0496 90.2591 9.95007 89.5925 9.96893C88.6669 10.1439 87.9165 10.4735 87.3617 11.2804C86.8388 12.0404 86.6138 13.1225 86.7903 14.0263C86.9577 14.8943 87.4723 15.6562 88.2156 16.1344C88.8082 16.507 89.4339 16.6144 90.1211 16.6023Z" fill="#080C09"/>
<path d="M61.4415 4.79541C61.6863 5.047 61.7624 5.71086 61.9081 6.06638C60.3318 6.72794 58.0467 6.59192 56.7792 7.80268C56.0211 8.52701 55.8402 9.52849 55.8243 10.5266C56.5024 9.68899 57.2458 9.01024 58.358 8.82436C59.4817 8.63644 60.6725 8.85382 61.5942 9.53974C62.5843 10.2768 63.1353 11.3453 63.3009 12.5555C63.4907 13.9464 63.1443 15.258 62.291 16.3689C61.6729 17.0548 60.9538 17.5616 60.048 17.7834C58.9013 18.0647 57.5923 17.919 56.5817 17.2919C55.4293 16.576 54.7658 15.3948 54.4781 14.0953C54.0486 12.1535 54.133 9.25134 55.2522 7.5277C56.2391 6.00713 57.7297 5.70607 59.3858 5.3122C60.0736 5.14863 60.7518 4.94735 61.4415 4.79541ZM58.8208 16.6105C59.7968 16.4661 60.523 16.2321 61.1295 15.3935C61.7246 14.5715 61.917 13.5335 61.7323 12.5453C61.5834 11.7478 61.1634 11.0184 60.4789 10.5672C60.0595 10.29 59.5731 10.1311 59.0707 10.1073C58.1209 10.2135 57.3398 10.4103 56.7076 11.1936C56.1145 11.9291 55.8607 12.9224 55.9917 13.8543C56.1113 14.7045 56.576 15.5226 57.274 16.0295C57.7463 16.3721 58.2532 16.5223 58.8208 16.6105Z" fill="#080C09"/>
<path d="M40.0841 5.40021C40.639 5.34453 41.2163 5.37119 41.7744 5.36729C41.6991 9.45293 41.789 13.5505 41.7655 17.6381L40.2942 17.6234L40.2965 10.3959C40.2924 9.56779 40.2752 8.738 40.3259 7.91107C38.9699 10.4154 37.7465 13.0296 36.2614 15.4579L35.3053 15.4528C33.8425 13.0545 32.6251 10.4703 31.2724 8.00587C31.3253 9.13602 31.2895 10.2836 31.2903 11.4155L31.2935 17.6388C30.803 17.626 30.3144 17.658 29.8233 17.635L29.824 10.1901C29.825 8.58977 29.7937 6.97939 29.8814 5.38122L31.5184 5.38212C31.9837 6.17995 32.3792 7.03487 32.8019 7.85675C33.7827 9.76326 34.7535 11.6905 35.8116 13.555C37.3666 10.9183 38.5976 8.07829 40.0841 5.40021Z" fill="#080C09"/>
<path d="M47.6516 8.56587C47.8761 8.55385 48.1008 8.54535 48.3257 8.54037C49.5036 8.52106 50.6774 8.84245 51.5266 9.69602C52.6626 10.8379 52.7757 12.2769 52.7759 13.7975C50.3239 13.8288 47.8685 13.7956 45.416 13.8065C45.4916 14.2111 45.5677 14.5984 45.7603 14.9679C46.1436 15.7068 46.8088 16.2597 47.6053 16.5013C48.5587 16.7902 49.5176 16.6208 50.3752 16.1478C50.6629 15.9522 50.926 15.7234 51.1938 15.5022C51.5787 15.7221 51.9682 15.9056 52.375 16.0813C51.7699 16.8976 50.9899 17.4927 50.0026 17.7631C48.7386 18.1089 47.1981 17.9733 46.0595 17.3035C45.0611 16.7148 44.3448 15.7458 44.0752 14.6189C43.7388 13.2638 43.9267 11.7816 44.6619 10.5897C45.3707 9.44086 46.3652 8.87313 47.6516 8.56587ZM45.4317 12.6521C46.6462 12.6425 47.8608 12.6387 49.0754 12.6419L51.3456 12.6431C51.1243 11.7115 50.9024 10.8478 50.0354 10.3024C49.4011 9.90325 48.6319 9.84246 47.9018 9.90331C47.1134 10.0854 46.4489 10.4442 45.9989 11.1391C45.6943 11.6096 45.5592 12.1152 45.4317 12.6521Z" fill="#080C09"/>
<path d="M78.1542 8.56291C78.3747 8.55192 78.5946 8.54457 78.8151 8.54086C79.99 8.52814 81.1642 8.87669 82.0028 9.73391C83.106 10.8623 83.2077 12.3022 83.2025 13.7915C80.7608 13.8286 78.3134 13.7992 75.8704 13.8049C75.903 14.2504 75.981 14.6339 76.1893 15.0347C76.5741 15.7768 77.2127 16.2677 78.0098 16.501C79.0759 16.8142 80.0462 16.5828 80.9884 16.06C81.2185 15.9015 81.423 15.7078 81.632 15.5224C82.0194 15.7308 82.4119 15.8995 82.8197 16.0619C82.1811 16.9012 81.3866 17.5097 80.3549 17.7711C79.0721 18.0964 77.5994 17.9718 76.4546 17.2808C75.4383 16.6672 74.7416 15.656 74.4744 14.5042C74.1695 13.1887 74.3824 11.6758 75.1174 10.5353C75.8525 9.39514 76.8579 8.84333 78.1542 8.56291ZM75.857 12.6486C77.0196 12.6454 78.1836 12.6294 79.3463 12.6416L81.8104 12.6403C81.5547 11.6824 81.2869 10.749 80.3601 10.2221C79.7861 9.89537 79.0868 9.8397 78.4387 9.90521C77.6697 10.0325 77.0196 10.3218 76.5422 10.9646C76.1638 11.4737 76.0027 12.0427 75.857 12.6486Z" fill="#080C09"/>
<path d="M103.513 8.69234C105 8.6226 106.509 8.67316 107.999 8.67789C107.923 11.6559 107.991 14.6541 107.99 17.6346L106.457 17.618L106.456 14.5582C105.724 14.5537 104.76 14.4105 104.062 14.5767C103.844 14.6285 103.805 14.7384 103.683 14.9078C103.166 15.8251 102.591 16.7103 102.072 17.6282C101.493 17.641 100.913 17.6429 100.334 17.6327C100.901 16.5684 101.671 15.214 102.421 14.2923C102.331 14.2488 102.243 14.2028 102.156 14.1555C101.502 13.7944 101.001 13.2133 100.81 12.4847C100.61 11.725 100.719 10.858 101.125 10.1836C101.673 9.27362 102.531 8.92379 103.513 8.69234ZM105.084 13.2741C105.536 13.2702 105.998 13.2843 106.449 13.2517C106.443 12.1925 106.446 11.1334 106.457 10.0743C105.559 10.071 104.648 10.0469 103.75 10.0961C103.184 10.2735 102.742 10.4649 102.436 11.0107C102.234 11.3734 102.179 11.8521 102.316 12.2462C102.448 12.6278 102.755 12.8957 103.115 13.0586C103.724 13.3335 104.432 13.2798 105.084 13.2741Z" fill="#080C09"/>
<path d="M66.4119 8.77424C68.3525 8.70425 70.3097 8.74963 72.2522 8.74606L72.2432 17.6332C71.7594 17.6261 71.2736 17.6057 70.7936 17.6715L70.7865 10.1435L69.9632 10.1766C69.2282 10.1404 68.4771 10.1888 67.7408 10.206C67.7203 11.9974 67.7133 15.7111 66.4586 17.0368C65.8328 17.6977 65.1259 17.7655 64.2713 17.7725C64.2649 17.3053 64.2399 16.8438 64.2061 16.3778C64.4291 16.3573 64.6656 16.342 64.883 16.287C66.2336 15.9463 66.2572 11.4835 66.2911 10.3582C66.3045 9.91967 66.2074 9.13123 66.4119 8.77424Z" fill="#080C09"/>
<path d="M97.8876 8.70847L98.0864 8.69678C98.1101 8.72906 98.1439 8.75597 98.1586 8.79362C98.2251 8.96843 98.1567 16.7318 98.1574 17.6293L96.856 17.6382L96.7601 17.619C96.5517 17.2426 96.7607 9.84451 96.6955 8.72618C97.0931 8.7311 97.4907 8.71774 97.8876 8.70847Z" fill="#080C09"/>
<path d="M96.6682 5.35701L98.1652 5.35254C98.1492 5.88377 98.1613 6.41545 98.169 6.94675L96.6279 6.95838C96.6503 6.42484 96.6637 5.89099 96.6682 5.35701Z" fill="#080C09"/>
</g>
<defs>
<clipPath id="clip0_16204_594">
<rect width="108" height="23.9052" fill="white"/>
</clipPath>
</defs>
</svg>
